<?xml version="1.0" encoding="utf-8"?>
<!-- Generator: Adobe Illustrator 20.1.0, SVG Export Plug-In . SVG Version: 6.00 Build 0)  -->
<svg version="1.1" id="Camada_1" xmlns="http://www.w3.org/2000/svg" xmlns:xlink="http://www.w3.org/1999/xlink" x="0px" y="0px"
	 viewBox="0 0 1024 768" style="enable-background:new 0 0 1024 768;" xml:space="preserve">
<polygon points="418.3,289.9 444.8,291.8 434.3,310.7 452,294.2 484.5,306.2 492,314.9 488.4,324.4 504,316 524.3,322.5 
	543.8,321.8 578.3,346.9 597.1,348.7 606.1,366.1 606.1,389 588.3,415 581.6,417.5 565.7,443.9 557.1,448.1 558.4,478.3 
	540.8,474.4 534.8,468.3 524,461.6 496.1,445.5 485.9,437.3 443.3,418.3 445.7,375.2 435.6,353 428.9,334.4 427.1,316.2 "/>
</svg>
