<?xml version="1.0" encoding="utf-8"?>
<!-- Generator: Adobe Illustrator 20.1.0, SVG Export Plug-In . SVG Version: 6.00 Build 0)  -->
<svg version="1.1" id="Camada_1" xmlns="http://www.w3.org/2000/svg" xmlns:xlink="http://www.w3.org/1999/xlink" x="0px" y="0px"
	 viewBox="0 0 1024 768" style="enable-background:new 0 0 1024 768;" xml:space="preserve">
<polygon points="518.5,498.9 524.7,486.3 663.3,462.3 665.7,419.2 648.9,378.4 647.1,360.2 638.3,333.9 646.5,314.3 635.1,301.3 
	633,284.6 625.9,279.2 607.5,307.3 586.2,300.5 571.8,301.4 574.4,311 559.4,308.2 541.8,317.1 528.1,308.1 526,292.3 531.5,286.1 
	524.4,268.4 491.9,288 466.8,281 475.6,303.7 484.8,305.2 452.4,323.7 433.1,304.3 410.4,308.4 405.6,319.2 414.9,325.8 
	404.8,327.1 404.8,335.5 412.6,349.4 405.7,382.6 378.4,386.4 364,404.5 369.4,411.3 360.5,411.3 358.1,424.8 381,452.6 
	397.6,443.7 397.8,466 424.4,464.5 447.3,452.2 461.6,450.6 459.6,470 476.5,486 "/>
</svg>
